# xmcd CD database file
#
# Track frame offsets:
#	150
#	10812
#	19925
#	29608
#	40633
#	49781
#	59916
#	70337
#	82255
#	92555
#	101296
#	111460
#	121002
#	134073
#	144321
#	156605
#	170754
#	177383
#	186756
#	193331
#
# Disc length: 2742 seconds
#
# Revision: 0
# Processed by: cddbd v1.5PL3 Copyright (c) Steve Scherf et al.
# Submitted via: CDex 1.60beta1
#
DISCID=2c0ab414
DTITLE=Mickey Gilley - Backtracks
DYEAR=1999
DGENRE=Country
TTITLE0=I'm to Blame
TTITLE1=Lotta Lovin'
TTITLE2=I'm Gonna Put My Love
TTITLE3=There's No One Like You
TTITLE4=Susie-Q
TTITLE5=Shake It for Mickey
TTITLE6=Down the Line
TTITLE7=Breathless
TTITLE8=Forgive
TTITLE9=Is It Wrong
TTITLE10=My Babe
TTITLE11=Night After Night
TTITLE12=Turn Around
TTITLE13=Lonely Wine
TTITLE14=Breeze
TTITLE15=I'll Make It All up to You
TTITLE16=Now That I Have You
TTITLE17=Caught in the Middle
TTITLE18=Sad Face Little Fellow
TTITLE19=Wild Side of Life
EXTD=YEAR: 1999
EXTT0=
EXTT1=
EXTT2=
EXTT3=
EXTT4=
EXTT5=
EXTT6=
EXTT7=
EXTT8=
EXTT9=
EXTT10=
EXTT11=
EXTT12=
EXTT13=
EXTT14=
EXTT15=
EXTT16=
EXTT17=
EXTT18=
EXTT19=
PLAYORDER=
